HIERARCHY
ROOT root
{
	OFFSET	0	13.1	24.9
	CHANNELS 6  Xposition Yposition Zposition Xrotation Yrotation Zrotation
	JOINT spine_1
	{
		OFFSET	0	9.99999	0
		CHANNELS 3  Xrotation Yrotation Zrotation
		JOINT spine_2
		{
			OFFSET	0	112	-10
			CHANNELS 3  Xrotation Yrotation Zrotation
			JOINT spine_3
			{
				OFFSET	0	206.5	19.3
				CHANNELS 3  Xrotation Yrotation Zrotation
				JOINT spine_4
				{
					OFFSET	0	110.4	14.6
					CHANNELS 3  Xrotation Yrotation Zrotation
					JOINT neck_1
					{
						OFFSET	0	71.8	-50.3
						CHANNELS 3  Xrotation Yrotation Zrotation
						JOINT neck_2
						{
							OFFSET	0	86.2	-25.8
							CHANNELS 3  Xrotation Yrotation Zrotation
							JOINT head_ee
							{
								OFFSET	0	179.8	-8.7
								CHANNELS 3  Xrotation Yrotation Zrotation
								End Site
								{
									OFFSET	1	0	0
								}
							}
						}
					}
					JOINT left_clavicle
					{
						OFFSET	-43.2	22.4	-70.8
						CHANNELS 3  Xrotation Yrotation Zrotation
						JOINT left_shoulder
						{
							OFFSET	-93.9	-5.79999	48.7
							CHANNELS 3  Xrotation Yrotation Zrotation
							JOINT left_elbow
							{
								OFFSET	-291.4	-30.8	15.2
								CHANNELS 3  Xrotation Yrotation Zrotation
								JOINT left_lowarm_twist
								{
									OFFSET	-110.7	-3.89999	13.6
									CHANNELS 3  Xrotation Yrotation Zrotation
									JOINT left_hand
									{
										OFFSET	-110.7	-3.89999	13.6
										CHANNELS 3  Xrotation Yrotation Zrotation
										JOINT left_ee
										{
											OFFSET	-80.8	-5.10001	12.1
											CHANNELS 3  Xrotation Yrotation Zrotation
											End Site
											{
												OFFSET	1	0	0
											}
										}
									}
								}
							}
						}
					}
					JOINT right_clavicle
					{
						OFFSET	43.2	22.4	-70.8
						CHANNELS 3  Xrotation Yrotation Zrotation
						JOINT right_shoulder
						{
							OFFSET	93.9	-5.79999	48.7
							CHANNELS 3  Xrotation Yrotation Zrotation
							JOINT right_elbow
							{
								OFFSET	291.4	-30.8	15.2
								CHANNELS 3  Xrotation Yrotation Zrotation
								JOINT right_lowarm_twist
								{
									OFFSET	110.7	-3.89999	13.6
									CHANNELS 3  Xrotation Yrotation Zrotation
									JOINT right_hand
									{
										OFFSET	110.7	-3.89999	13.6
										CHANNELS 3  Xrotation Yrotation Zrotation
										JOINT right_ee
										{
											OFFSET	80.8	-5.10001	12.1
											CHANNELS 3  Xrotation Yrotation Zrotation
											End Site
											{
												OFFSET	1	0	0
											}
										}
									}
								}
							}
						}
					}
				}
			}
		}
	}
	JOINT left_hip
	{
		OFFSET	-82.8	-127.5	0.300001
		CHANNELS 3  Xrotation Yrotation Zrotation
		JOINT left_knee
		{
			OFFSET	-28.2	-396.7	2.2
			CHANNELS 3  Xrotation Yrotation Zrotation
			JOINT left_ankle
			{
				OFFSET	-11.7	-411.3	35.4
				CHANNELS 3  Xrotation Yrotation Zrotation
				JOINT left_toes
				{
					OFFSET	0	-60	-88.6
					CHANNELS 3  Xrotation Yrotation Zrotation
					JOINT left_foot_ee
					{
						OFFSET	-22.5	-16.5	-42.2
						CHANNELS 3  Xrotation Yrotation Zrotation
						End Site
						{
							OFFSET	1	0	0
						}
					}
				}
			}
		}
	}
	JOINT right_hip
	{
		OFFSET	82.8	-127.5	0.300001
		CHANNELS 3  Xrotation Yrotation Zrotation
		JOINT right_knee
		{
			OFFSET	28.2	-396.7	2.2
			CHANNELS 3  Xrotation Yrotation Zrotation
			JOINT right_ankle
			{
				OFFSET	11.7	-411.3	35.4
				CHANNELS 3  Xrotation Yrotation Zrotation
				JOINT right_toes
				{
					OFFSET	0	-60	-88.6
					CHANNELS 3  Xrotation Yrotation Zrotation
					JOINT right_foot_ee
					{
						OFFSET	22.5	-16.5	-42.2
						CHANNELS 3  Xrotation Yrotation Zrotation
						End Site
						{
							OFFSET	1	0	0
						}
					}
				}
			}
		}
	}
}
MOTION
Frames: 15
Frame Time: 0.02
1624.03 770.109 -487.666 101.686 -83.3943 101.518 -3.624 -0.109022 0.776679 -3.62368 -0.158222 0.768169 -3.62551 -0.360915 0.696321 -3.6261 -0.246418 0.744579 -2.69982 4.77575 -5.41552 -2.50621 12.8969 -5.00424 -0.0 0.0 -0.0 -0.567581 11.1391 0.354367 -1.47334 -25.231 72.3103 0.485234 -13.516 0.0575003 0.815591 0.028022 -0.100395 -2.24426 23.9756 -3.28037 -0.0 0.0 -0.0 6.47317 12.3453 -12.1565 -3.764 16.4022 -60.2867 2.45513 50.5639 -1.15973 -8.89003 0.396701 -1.06393 -0.516981 -0.194312 3.37046 0.0 0.0 0.0 5.55179 19.5093 -8.49934 -7.65002 0.238557 1.14894 -24.0473 22.8974 3.73203 19.8809 -0.0 -0.0 -0.0 0.0 -0.0 6.06335 22.6652 -7.80485 -7.66702 -0.238916 -1.15153 10.9631 -7.7156 1.55304 -27.5722 0.0 0.0 0.0 0.0 0.0 
1624.9 775.844 -486.619 90.0 -84.159 90.0 -3.69135 -0.139787 0.732065 -3.69107 -0.186085 0.721688 -3.69319 -0.375867 0.643575 -3.69367 -0.269511 0.694857 -3.27121 4.47999 -5.93256 -3.07187 12.7482 -5.51524 -0.0 0.0 -0.0 -0.178947 8.82112 0.732756 -1.38462 -24.3358 72.2858 0.431001 -12.0522 0.0454987 2.7926 0.0899886 -0.345301 -2.22362 25.1736 -2.5624 -0.0 0.0 -0.0 7.12695 12.38 -13.55 -3.47193 14.7111 -59.3338 2.43874 50.3757 -1.14709 -10.0106 0.458304 -1.19336 -0.772821 4.18342 6.99172 0.0 0.0 0.0 5.30888 22.3157 -7.06247 0.372008 -0.0154971 -0.0549838 -23.4929 19.7806 3.60149 18.5046 -0.0 -0.0 -0.0 0.0 -0.0 6.58599 21.8013 -7.88335 -5.88281 -0.197123 -0.880924 9.83097 -9.4781 1.39873 -26.6818 0.0 0.0 0.0 0.0 0.0 
1627.36 769.014 -491.612 90.0 -84.3713 90.0 -3.8099 -0.155576 0.719902 -3.80964 -0.201069 0.708544 -3.81192 -0.387996 0.626041 -3.81236 -0.284257 0.679458 -1.84557 3.81388 -6.82162 -1.5858 12.2946 -6.72892 -0.0 0.0 -0.0 0.264307 7.15304 1.32166 -1.83148 -23.6804 72.6005 0.388527 -10.8944 0.0370499 4.20957 0.129181 -0.522056 -2.20672 26.0457 -2.03201 -0.0 0.0 -0.0 7.30749 12.3526 -13.938 -3.47 13.2712 -58.5436 2.43214 50.2994 -1.142 -10.8752 0.507564 -1.2924 -0.757606 10.5333 9.63183 0.0 0.0 0.0 5.70814 24.0115 -7.54563 4.71393 -0.222621 -0.688773 -22.7239 12.8981 3.42735 18.1291 -0.0 -0.0 -0.0 0.0 -0.0 6.78271 20.8906 -7.27248 -4.64378 -0.16315 -0.693813 5.20964 -11.3741 0.753097 -24.7632 0.0 0.0 0.0 0.0 0.0 
1629.25 767.171 -494.692 70.7621 -84.6574 70.9777 -3.79806 -0.166166 0.713805 -3.7978 -0.21125 0.701786 -3.8002 -0.395802 0.616826 -3.80062 -0.293421 0.671592 -0.378491 3.07583 -8.07885 -0.0308929 12.0617 -8.36388 -0.0 0.0 -0.0 0.524552 5.31357 1.5893 -2.29181 -23.1893 72.2627 0.347758 -9.77455 0.0297357 5.73056 0.166369 -0.712785 -2.23479 27.1782 -1.62133 -0.0 0.0 -0.0 7.26444 12.3743 -13.8447 -3.46245 12.2623 -58.0509 2.42109 50.1713 -1.13351 -11.5168 0.54508 -1.3654 -0.724813 15.4002 11.4747 0.0 0.0 0.0 4.99214 24.5406 -5.66708 5.98379 -0.292239 -0.871053 -20.1355 6.51359 3.02939 18.8713 -0.0 -0.0 -0.0 0.0 -0.0 7.14694 20.2349 -7.06731 -3.76912 -0.136732 -0.562179 1.12279 -12.7078 0.164334 -23.4806 0.0 0.0 0.0 0.0 0.0 
1634.51 765.961 -494.34 67.3765 -84.8815 67.18 -3.77152 -0.166017 0.717156 -3.77126 -0.211314 0.705139 -3.77367 -0.396497 0.620217 -3.77409 -0.293572 0.67505 0.361425 1.69965 -8.81397 0.722226 10.2745 -9.39923 -0.0 0.0 -0.0 0.60476 4.27045 1.62477 -2.52996 -22.9133 71.9697 0.353043 -9.92016 0.0306395 7.17721 0.197028 -0.895034 -1.84012 28.6808 1.25062 -0.0 0.0 -0.0 7.26836 13.072 -13.8184 -3.68589 12.0744 -57.9415 2.41439 50.0932 -1.12837 -12.5097 0.604757 -1.47757 -0.683301 18.8165 12.6177 0.0 0.0 0.0 4.73812 24.8186 -4.90314 6.22922 -0.30616 -0.906106 -19.5385 1.06737 2.96314 18.8366 -0.0 -0.0 -0.0 0.0 -0.0 6.87749 19.8075 -6.45307 -3.5615 -0.130167 -0.530993 -2.15323 -12.1572 -0.317295 -22.7139 0.0 0.0 0.0 0.0 0.0 
1641.01 765.893 -495.574 63.6625 -85.3044 62.8657 -3.88238 -0.164475 0.727672 -3.88211 -0.210444 0.715733 -3.88454 -0.399785 0.62987 -3.88497 -0.295294 0.685101 0.60374 0.752557 -9.28269 0.966731 9.00912 -10.0302 -0.0 0.0 -0.0 0.649046 3.56796 1.63214 -2.83592 -22.6805 71.747 0.354571 -9.96225 0.0309033 8.34698 0.218447 -1.04292 -1.46285 29.0124 3.42765 -0.0 0.0 -0.0 7.24058 13.4548 -13.7387 -4.0018 11.903 -57.9212 2.40481 49.981 -1.12102 -13.3362 0.655909 -1.57013 -0.654159 21.2064 13.4035 0.0 0.0 0.0 4.69252 24.9625 -4.6579 6.3557 -0.313393 -0.924147 -19.1267 -2.75955 2.93308 18.8123 -0.0 -0.0 -0.0 0.0 -0.0 6.63463 19.5099 -6.03121 -3.42599 -0.12582 -0.510649 -4.46252 -11.4191 -0.660145 -22.2005 0.0 0.0 0.0 0.0 0.0 
1655.58 777.526 -494.498 72.8296 -86.0201 71.697 -4.12196 0.0309079 0.742848 -4.12165 -0.0164228 0.743309 -4.12143 -0.223829 0.709001 -4.12212 -0.10905 0.735451 1.53557 -0.368889 -9.27143 1.86821 7.1236 -10.2264 -0.0 0.0 -0.0 0.578467 4.57581 1.60891 -2.9451 -22.2654 71.5023 0.465729 -12.9915 0.0530286 8.00974 0.212582 -1.00024 -1.29736 28.6069 4.14018 -0.0 0.0 -0.0 7.19707 13.3176 -13.6524 -7.30394 11.2413 -58.8913 2.50553 51.1336 -1.19881 -14.8579 0.753573 -1.73862 -0.803297 23.7413 15.4342 0.0 0.0 0.0 5.21337 24.924 -5.76853 2.10158 -0.0922299 -0.309276 -18.6538 -6.82909 2.90927 21.5035 -0.0 -0.0 -0.0 0.0 -0.0 6.4077 18.9887 -5.47473 -4.9626 -0.172278 -0.741889 -6.02028 -7.62377 -0.892157 -20.5617 0.0 0.0 0.0 0.0 0.0 
1666.13 768.493 -497.597 73.4739 -85.7863 72.723 -4.29719 0.173068 0.730571 -4.2969 0.126231 0.740102 -4.29473 -0.0882247 0.745588 -4.2955 0.0306308 0.750164 2.42675 -1.1904 -9.18553 2.733 5.71588 -10.2939 -0.0 0.0 -0.0 0.431992 5.89174 1.48367 -3.65939 -22.3372 71.0891 0.571569 -15.809 0.0793582 6.7021 0.187467 -0.835097 -1.53674 28.6903 2.88681 -0.0 0.0 -0.0 6.84141 12.9632 -12.9088 -8.42428 9.02606 -59.5272 2.82844 54.4739 -1.45615 -15.3293 0.784737 -1.7903 -0.851199 23.5056 15.6633 0.0 0.0 0.0 5.51877 24.8926 -6.51074 -1.289 0.0509248 0.191256 -21.4346 -9.71656 3.39729 24.5308 -0.0 -0.0 -0.0 0.0 -0.0 6.40179 17.5132 -5.60304 -6.24976 -0.206407 -0.936471 -7.54539 -4.00709 -1.12454 -19.1846 0.0 0.0 0.0 0.0 0.0 
1666.32 769.095 -502.817 90.0 -86.1453 90.0 -4.07334 0.240297 0.727515 -4.07307 0.193518 0.74133 -4.07 -0.0210215 0.765882 -4.07081 0.100196 0.759591 2.5483 -1.816 -8.81572 2.81032 4.32379 -9.93602 -0.0 0.0 -0.0 0.674663 6.22289 1.95813 -2.19761 -22.6343 70.961 0.578594 -15.9934 0.081283 6.74412 0.188332 -0.840395 -1.67593 28.6172 2.10434 -0.0 0.0 -0.0 6.55771 12.726 -12.3156 -8.91799 7.67854 -60.5188 3.10776 56.9815 -1.68702 -15.8755 0.821375 -1.84984 -0.880071 20.9664 14.8374 0.0 0.0 0.0 6.23013 24.8602 -7.08928 -3.65653 0.133186 0.545265 -22.3823 -11.1634 3.57881 25.8151 -0.0 -0.0 -0.0 0.0 -0.0 6.47349 16.3646 -6.12702 -7.19164 -0.228605 -1.07931 -6.11482 -0.627229 -0.915061 -18.8237 0.0 0.0 0.0 0.0 0.0 
1670.34 768.193 -493.882 72.5435 -86.2149 73.2161 -3.84286 0.24753 0.683628 -3.84262 0.203529 0.697993 -3.83966 0.00360812 0.727051 -3.84037 0.118384 0.717357 2.53243 -1.61058 -6.67369 2.67741 2.85341 -7.52933 -0.0 0.0 -0.0 0.133711 6.72562 1.03906 -1.46889 -22.7385 70.4197 0.646708 -17.7635 0.101062 6.41447 0.181437 -0.798849 -2.02529 27.3539 -0.387618 -0.0 0.0 -0.0 6.86773 12.48 -12.9907 -8.66423 6.87493 -61.0734 2.98467 55.9161 -1.58443 -15.8516 0.819761 -1.84725 -0.834614 17.6834 13.1795 0.0 0.0 0.0 6.96733 24.0816 -9.14297 -1.7628 0.068558 0.26183 -22.1074 -12.5447 3.56693 24.6838 -0.0 -0.0 -0.0 0.0 -0.0 5.31566 13.1895 -7.05169 -6.33702 -0.208562 -0.949689 -0.700142 3.29941 -0.104822 -20.5988 0.0 0.0 0.0 0.0 0.0 
1675.29 768.083 -488.321 67.6658 -86.3915 68.9717 -3.67805 0.176132 0.603245 -3.67785 0.137389 0.61323 -3.67603 -0.0348659 0.627464 -3.67657 0.0646658 0.625096 3.16419 -1.01664 -4.65914 3.23731 2.21826 -5.27794 -0.0 0.0 -0.0 -0.172343 6.05086 0.406987 -1.21624 -22.0922 70.1084 0.720991 -19.6546 0.124892 6.73178 0.188078 -0.838839 -2.3758 26.23 -2.87876 -0.0 0.0 -0.0 7.27975 12.8918 -13.852 -9.71371 6.38223 -61.9851 2.71272 53.3354 -1.36263 -15.9989 0.829733 -1.86325 -0.825237 15.0551 12.0167 0.0 0.0 0.0 7.09818 23.8153 -10.235 -1.54741 0.0606144 0.22973 -20.9966 -12.5091 3.38665 25.2284 -0.0 -0.0 -0.0 0.0 -0.0 4.58789 10.8297 -8.24189 -5.73566 -0.193301 -0.858665 3.83085 6.35106 0.573596 -21.2404 0.0 0.0 0.0 0.0 0.0 
1680.88 765.984 -485.275 65.4832 -86.449 67.1026 -3.56922 0.117352 0.548875 -3.56905 0.0821882 0.55523 -3.56799 -0.071131 0.556754 -3.56842 0.0176893 0.561001 3.46159 -0.580919 -3.25012 3.49886 1.78229 -3.68311 -0.0 0.0 -0.0 -0.381926 5.57108 -0.0333411 -1.02164 -21.6459 69.8949 0.775428 -21.0129 0.14381 6.95353 0.192588 -0.866806 -2.61477 25.4204 -4.63468 -0.0 0.0 -0.0 7.46585 13.0821 -14.2424 -10.5454 5.89242 -62.3943 2.52265 51.324 -1.21216 -16.0771 0.835043 -1.87174 -0.821887 13.1907 11.2057 0.0 0.0 0.0 7.22067 23.6363 -11.0529 -1.36773 0.0538951 0.202972 -20.218 -12.4813 3.26 25.6121 -0.0 -0.0 -0.0 0.0 -0.0 3.95849 9.23951 -8.66535 -5.3159 -0.182082 -0.795223 6.84755 8.49971 1.02607 -21.6952 0.0 0.0 0.0 0.0 0.0 
1687.4 762.097 -486.612 64.8831 -86.6616 66.5424 -3.46807 -0.0213487 0.496175 -3.46793 -0.0528779 0.493811 -3.46824 -0.183738 0.461396 -3.46852 -0.108564 0.484623 2.75274 -0.300534 -2.40389 2.7739 1.52057 -2.69416 -0.0 0.0 -0.0 -0.478931 5.21062 -0.256411 -0.514541 -21.4607 70.3109 0.823354 -22.1887 0.161454 7.44296 0.202159 -0.928594 -2.78623 24.4466 -6.12583 -0.0 0.0 -0.0 7.36041 12.7511 -14.0322 -12.0069 5.45648 -63.2843 2.39928 49.9161 -1.11679 -16.673 0.875889 -1.93616 -0.929259 12.2614 11.5475 0.0 0.0 0.0 7.14579 23.6554 -11.2613 -2.51088 0.0952087 0.373545 -19.3979 -12.4589 3.1266 26.3957 -0.0 -0.0 -0.0 0.0 -0.0 3.25319 8.2562 -8.50295 -5.05574 -0.174895 -0.755943 6.82105 9.75114 1.02912 -21.9027 0.0 0.0 0.0 0.0 0.0 
1698.15 763.364 -489.999 63.558 -86.7086 65.1046 -3.32586 -0.130119 0.391073 -3.32579 -0.15474 0.382001 -3.32679 -0.25097 0.32693 -3.32689 -0.196188 0.362463 2.24541 -0.115305 -1.82798 2.25824 1.34267 -2.02834 -0.0 0.0 -0.0 -0.543565 4.94709 -0.408898 -0.111678 -21.3541 70.6973 0.857785 -23.0215 0.174689 7.7856 0.208544 -0.971896 -2.9045 23.7678 -7.17352 -0.0 0.0 -0.0 7.39397 12.5537 -14.1138 -12.9584 5.24161 -64.1189 2.31737 48.9336 -1.05458 -17.0954 0.905252 -1.98158 -1.00181 11.6086 11.7678 0.0 0.0 0.0 6.94321 23.7244 -11.0988 -3.3115 0.12211 0.49347 -18.8175 -12.4593 3.03243 26.9542 -0.0 -0.0 -0.0 0.0 -0.0 2.81357 7.57056 -8.42087 -4.8867 -0.17013 -0.73044 6.79451 10.6267 1.03039 -22.065 0.0 0.0 0.0 0.0 0.0 
1712.48 766.123 -487.27 52.7694 -86.2312 53.9302 -3.05614 -0.18377 0.315654 -3.05611 -0.203483 0.30332 -3.05721 -0.275852 0.239404 -3.05721 -0.234581 0.279965 1.45007 0.267808 -2.85833 1.4858 2.86153 -3.10455 -0.0 0.0 -0.0 -0.92549 4.67902 -1.14726 0.202214 -21.9387 71.301 0.90347 -24.1107 0.192955 8.11789 0.21449 -1.01393 -2.73885 23.236 -6.50538 -0.0 0.0 -0.0 7.71762 12.5567 -14.8093 -13.2928 4.91574 -64.3992 1.8538 42.5576 -0.722029 -16.4315 0.859257 -1.91011 -0.965613 12.7847 12.0202 0.0 0.0 0.0 6.05505 24.5678 -11.0801 -3.91981 0.141427 0.584829 -18.381 -13.2341 2.97744 28.0012 -0.0 -0.0 -0.0 0.0 -0.0 3.69799 6.81845 -8.04754 -4.7163 -0.16525 -0.704744 2.09623 9.52254 0.320595 -20.9218 0.0 0.0 0.0 0.0 0.0 
